<svg xmlns="http://www.w3.org/2000/svg" width="24" height="24" viewBox="0 0 24 24"><path fill="currentColor" d="M12 2C7.58172 2 4 4.01472 4 6.5C4 8.98528 7.58172 11 12 11C16.4183 11 20 8.98528 20 6.5C20 4.01472 16.4183 2 12 2ZM6 6.5C6 7.88071 8.68629 9 12 9C15.3137 9 18 7.88071 18 6.5C18 5.11929 15.3137 4 12 4C8.68629 4 6 5.11929 6 6.5Z"/><path fill="currentColor" d="M4 11.5C4 13.9853 7.58172 16 12 16C16.4183 16 20 13.9853 20 11.5V11V9.5V9C20 9.5 20 10.5 12 10.5C4 10.5 4 9.5 4 9V11.5ZM6 11.5C6 12.8807 8.68629 14 12 14C15.3137 14 18 12.8807 18 11.5C18 12.5 12 12.5 12 12.5C12 12.5 6 12.5 6 11.5Z"/><path fill="currentColor" d="M4 16.5C4 18.9853 7.58172 21 12 21C16.4183 21 20 18.9853 20 16.5V16V14.5V14C20 14.5 20 15.5 12 15.5C4 15.5 4 14.5 4 14V16.5ZM6 16.5C6 17.8807 8.68629 19 12 19C15.3137 19 18 17.8807 18 16.5C18 17.5 12 17.5 12 17.5C12 17.5 6 17.5 6 16.5Z"/></svg>